<?xml version="1.0" encoding="utf-8"?>
<!-- Generator: Adobe Illustrator 21.1.0, SVG Export Plug-In . SVG Version: 6.00 Build 0)  -->
<svg version="1.1" id="Layer_1" xmlns="http://www.w3.org/2000/svg" xmlns:xlink="http://www.w3.org/1999/xlink" x="0px" y="0px"
	 viewBox="0 0 24 24" style="enable-background:new 0 0 24 24;" xml:space="preserve">
<style type="text/css">
	.st0{fill:#285FA0;}
</style>
<image style="display:none;overflow:visible;" width="100" height="100" xlink:href="facbook.png"  transform="matrix(0.24 0 0 0.24 0 0)">
</image>
<path class="st0" d="M12.7,10.8c-0.1-2.2,0-4.7,1.6-6.1c1.6-1.4,3.9-1.3,6-1.1c0,1.2,0,2.4,0,3.6c-0.9,0.3-1.9-0.2-2.7,0.1
	c-0.6,0.3-1,0.9-1.1,1.6s0,1.3,0.1,2c1.2,0,2.5,0,3.7,0c-0.2,1.1-0.4,2.3-0.5,3.4c0,0.2-0.1,0.3-0.2,0.4c-0.1,0.1-0.2,0.1-0.3,0.1
	c-0.9,0-1.8,0-2.7,0c0,3.1,0,6.2,0,9.2c1.9,0,3.9,0,5.8,0c0.4,0,0.9,0,1.2-0.3c0.4-0.3,0.4-0.9,0.4-1.4c0-6.8,0-13.6,0-20.4
	c0-0.5,0-1.1-0.4-1.5C23.2,0,22.7,0,22.1,0C15.4,0,8.7,0,2,0c-2.4,0-2,4.4-2,6c0,4.9,0,9.8,0,14.6c0,2,0.1,3.3,2.4,3.3
	c3.5,0,7,0,10.5,0c0.1-3.2,0.1-6.3,0.1-9.5c-1.1,0-2.2,0-3.4,0.1c-0.1-1.2-0.2-2.4-0.2-3.6C10.5,10.9,11.6,10.9,12.7,10.8z"/>
</svg>
