<?xml version="1.0" encoding="utf-8"?>
<!-- Generator: Adobe Illustrator 21.1.0, SVG Export Plug-In . SVG Version: 6.00 Build 0)  -->
<svg version="1.1" id="Layer_1" xmlns="http://www.w3.org/2000/svg" xmlns:xlink="http://www.w3.org/1999/xlink" x="0px" y="0px"
	 viewBox="0 0 24 24" style="enable-background:new 0 0 24 24;" xml:space="preserve">
<style type="text/css">
	.st0{fill:url(#SVGID_1_);}
	.st1{fill:url(#SVGID_2_);}
	.st2{fill:#FFFFFF;}
	.st3{fill:url(#SVGID_3_);}
	.st4{fill:url(#SVGID_4_);}
</style>
<g>
	
		<image style="display:none;overflow:visible;" width="100" height="100" xlink:href="twitter.png"  transform="matrix(0.24 0 0 0.24 0 0)">
	</image>
	
		<radialGradient id="SVGID_1_" cx="5.25" cy="25.3333" r="33.3949" gradientTransform="matrix(0.4592 -0.8884 0.7213 0.3728 -15.4347 20.5522)" gradientUnits="userSpaceOnUse">
		<stop  offset="0" style="stop-color:#F9ED32"/>
		<stop  offset="0.6462" style="stop-color:#EE2A7B"/>
		<stop  offset="0.9872" style="stop-color:#002AFF"/>
	</radialGradient>
	<path class="st0" d="M17.7,0H6.3C2.8,0,0,2.8,0,6.3v11.3C0,21.2,2.8,24,6.3,24h10.6c3.9,0,7.1-3.2,7.1-7.1V6.3
		C24,2.8,21.2,0,17.7,0z M21.7,17c0,2.6-2.1,4.7-4.7,4.7H6.3c-2.2,0-4-1.8-4-4V6.3c0-2.2,1.8-4,4-4h11.5c2.2,0,4,1.8,4,4V17z"/>
	
		<radialGradient id="SVGID_2_" cx="5.25" cy="25.3333" r="33.3949" gradientTransform="matrix(0.4592 -0.8884 0.7213 0.3728 -15.4347 20.5522)" gradientUnits="userSpaceOnUse">
		<stop  offset="0" style="stop-color:#F9ED32"/>
		<stop  offset="0.6462" style="stop-color:#EE2A7B"/>
		<stop  offset="0.9872" style="stop-color:#002AFF"/>
	</radialGradient>
	<path class="st1" d="M21.7,6.3V17c0,2.6-2.1,4.7-4.7,4.7H6.3c-2.2,0-4-1.8-4-4V6.3c0-2.2,1.8-4,4-4h11.5
		C19.9,2.3,21.7,4.1,21.7,6.3z"/>
	<path class="st2" d="M21.7,6.3V17c0,2.6-2.1,4.7-4.7,4.7H6.3c-2.2,0-4-1.8-4-4V6.3c0-2.2,1.8-4,4-4h11.5
		C19.9,2.3,21.7,4.1,21.7,6.3z"/>
	
		<radialGradient id="SVGID_3_" cx="5.25" cy="25.3333" r="33.3949" gradientTransform="matrix(0.4592 -0.8884 0.7213 0.3728 -15.4347 20.5522)" gradientUnits="userSpaceOnUse">
		<stop  offset="0" style="stop-color:#F9ED32"/>
		<stop  offset="0.6462" style="stop-color:#EE2A7B"/>
		<stop  offset="0.9872" style="stop-color:#002AFF"/>
	</radialGradient>
	<path class="st3" d="M12,18.2L12,18.2c-3.4,0-6.2-2.8-6.2-6.2v0c0-3.4,2.8-6.2,6.2-6.2h0c3.4,0,6.2,2.8,6.2,6.2v0
		C18.2,15.4,15.4,18.2,12,18.2z"/>
	<path class="st2" d="M12,16.2L12,16.2c-2.3,0-4.2-1.9-4.2-4.2v0c0-2.3,1.9-4.2,4.2-4.2h0c2.3,0,4.2,1.9,4.2,4.2v0
		C16.2,14.3,14.3,16.2,12,16.2z"/>
	
		<radialGradient id="SVGID_4_" cx="5.25" cy="25.3333" r="33.3949" gradientTransform="matrix(0.4592 -0.8884 0.7213 0.3728 -15.4347 20.5522)" gradientUnits="userSpaceOnUse">
		<stop  offset="0" style="stop-color:#F9ED32"/>
		<stop  offset="0.6462" style="stop-color:#EE2A7B"/>
		<stop  offset="0.9872" style="stop-color:#002AFF"/>
	</radialGradient>
	<path class="st4" d="M18.6,7L18.6,7c-0.8,0-1.5-0.7-1.5-1.5v0c0-0.8,0.7-1.5,1.5-1.5h0c0.8,0,1.5,0.7,1.5,1.5v0
		C20.1,6.3,19.4,7,18.6,7z"/>
</g>
</svg>
