<?xml version="1.0" encoding="utf-8"?>
<!-- Generator: Adobe Illustrator 21.1.0, SVG Export Plug-In . SVG Version: 6.00 Build 0)  -->
<svg version="1.1" id="Layer_1" xmlns="http://www.w3.org/2000/svg" xmlns:xlink="http://www.w3.org/1999/xlink" x="0px" y="0px"
	 viewBox="0 0 24 24" style="enable-background:new 0 0 24 24;" xml:space="preserve">
<style type="text/css">
	.st0{fill:#1D99DD;}
</style>
<image style="display:none;overflow:visible;" width="100" height="100" xlink:href="twitterr.png"  transform="matrix(0.24 0 0 0.24 0 0)">
</image>
<path class="st0" d="M11.1,23.3c6.2-2.2,10-9.4,10-15.7c0,0,0-1.3,0-1.3c0.8-0.9,1.6-1.7,2.4-2.6c0,0-2.7,0.7-2.7,0.7
	c1-0.2,1.7-2.2,1.9-3.1c-0.2,0.3-2.5,1.3-2.8,1c-0.7-0.8-1.6-1.5-2.6-1.7c-4-0.9-6.1,3.5-6.1,6.8c0,0,0,0.5,0,0.5
	c0,0.1-3.5-0.8-3.9-1c-2.1-1-3.8-2.6-5.4-4.4c0,0-0.6-0.6-0.6-0.7c0.1,0.1-0.4,1.5-0.5,1.7C0.5,5.3,1.1,7.2,2.3,8.6
	C3,9.3,2.5,9.4,1.8,9.2C1.6,9.2,1,8.8,0.8,9c-0.3,0.3,0,1.7,0.1,2.1c0.3,1,1,1.7,1.7,2.4c0.6,0.5,1.3,1.4,2.2,1.4
	c-0.8,0.2-1.5,0-2.2,0c-0.1,1.1,0.7,2.1,1.5,2.8c0.3,0.3,2.3,1.8,2.8,1.3c-1.9,1.8-4.3,2.5-6.9,2.7c0.6,0,1.2,0.6,1.7,0.9
	C4.6,24.3,7.8,24.5,11.1,23.3z"/>
</svg>
